<svg width="64" height="64" viewBox="0 0 64 64" fill="none" xmlns="http://www.w3.org/2000/svg">
  <circle cx="32" cy="32" r="28" fill="#25D366"/>
  <path d="M20 46l2.2-8.1A16 16 0 1 1 48 32c0 8.837-7.163 16-16 16-2.736 0-5.313-.687-7.567-1.9L20 46Z" fill="white"/>
  <path d="M27.96 22.86c-.396-.882-.815-.9-1.193-.916-.31-.013-.665-.012-1.02-.012-.355 0-.93.133-1.417.665-.486.532-1.86 1.818-1.86 4.43 0 2.61 1.904 5.134 2.17 5.49.266.355 3.737 5.99 9.23 8.151 4.567 1.798 5.494 1.441 6.483 1.352.989-.088 3.194-1.306 3.646-2.568.453-1.263.453-2.345.32-2.567-.133-.222-.487-.355-1.02-.622-.532-.266-3.149-1.55-3.637-1.727-.488-.178-.843-.266-1.198.266-.355.533-1.376 1.728-1.686 2.083-.31.355-.621.4-1.154.133-.532-.266-2.248-.829-4.282-2.646-1.583-1.414-2.651-3.16-2.962-3.692-.31-.533-.033-.82.233-1.086.239-.238.532-.622.798-.933.266-.31.355-.532.533-.887.177-.355.088-.666-.045-.932-.133-.266-1.175-2.93-1.659-4.01Z" fill="#25D366"/>
</svg>
