<svg width="64" height="64" viewBox="0 0 64 64" fill="none" xmlns="http://www.w3.org/2000/svg">
  <rect x="10" y="6" width="44" height="52" rx="8" fill="#0B6CFF"/>
  <path d="M24.267 10C18.045 15.353 14 24.249 14 34.091C14 42.207 16.75 49.679 21.369 55.486C20.783 57.583 19.634 59.503 18 61C22.504 60.559 26.143 58.597 28.126 56.313C30.278 56.91 32.546 57.231 34.891 57.231C47.406 57.231 58 46.938 58 34.091C58 21.244 47.406 10.95 34.891 10.95C31.172 10.95 27.676 11.859 24.607 13.475" fill="white"/>
  <path d="M28.076 23.514H42.369L31.007 39.789H42.085" stroke="#0B6CFF" stroke-width="3" stroke-linecap="round" stroke-linejoin="round"/>
</svg>
